<?xml version="1.0" encoding="utf-8"?>
<!-- Generator: Adobe Illustrator 24.3.0, SVG Export Plug-In . SVG Version: 6.00 Build 0)  -->
<svg version="1.1" id="レイヤー_1" xmlns="http://www.w3.org/2000/svg" xmlns:xlink="http://www.w3.org/1999/xlink" x="0px"
	 y="0px" viewBox="0 0 400 240" style="enable-background:new 0 0 400 240;" xml:space="preserve">
<style type="text/css">
	.st0{fill:#FF7382;}
</style>
<g>
	<path class="st0" d="M170,145.8v-44.4h-27.2c-7.9,0-14.3,6.4-14.3,14.3v42.9c0,7.9,6.5,14.3,14.3,14.3h7.2v21.5l21.5-21.5h35.8
		c7.9,0,14.3-6.5,14.3-14.3v-13.1c-0.4,0.1-0.9,0.2-1.5,0.2H170z"/>
	<path class="st0" d="M257.3,65.6h-64.4c-7.9,0-14.3,6.5-14.3,14.3v57.3h50.1l21.5,21.5v-21.5h7.2c7.9,0,14.3-6.5,14.3-14.3V79.9
		C271.6,72,265.2,65.6,257.3,65.6z M236.1,121.2h-39.8c-1.2,0-2.1-0.9-2.1-2.1c0-1.2,0.9-2.1,2.1-2.1h39.8c1.2,0,2.1,0.9,2.1,2.1
		C238.2,120.3,237.3,121.2,236.1,121.2z M245.7,103.6h-49.4c-1.2,0-2.1-0.9-2.1-2.1c0-1.2,0.9-2.1,2.1-2.1h49.4
		c1.2,0,2.1,0.9,2.1,2.1C247.9,102.7,246.9,103.6,245.7,103.6z M255.4,86h-59c-1.2,0-2.1-0.9-2.1-2.1c0-1.2,0.9-2.1,2.1-2.1h59
		c1.2,0,2.1,0.9,2.1,2.1C257.5,85,256.5,86,255.4,86z"/>
</g>
</svg>
