<svg id="レイヤー_1" data-name="レイヤー 1" xmlns="http://www.w3.org/2000/svg" viewBox="0 0 400 240"><defs><style>.cls-1{fill:#ff7382;}</style></defs><path class="cls-1" d="M267.67,91.81a14.52,14.52,0,0,0-29,0c0,13.87,14.52,32,14.52,32S267.67,105.68,267.67,91.81ZM245.31,92a7.84,7.84,0,1,1,7.84,7.84A7.84,7.84,0,0,1,245.31,92Z"/><path class="cls-1" d="M132.33,199.46l17.35-9.67L167,199.46l-17.36-44Zm19.84-30.93,10,25.38-10-5.58Z"/><path class="cls-1" d="M244,165.89a16.61,16.61,0,1,1-33.22,0V143.33a35,35,0,1,0-69.94,0V149h18.36v-5.63a16.61,16.61,0,1,1,33.22,0v22.56a35,35,0,1,0,69.94,0V131.52H244Z"/><path class="cls-1" d="M170,94.59,175.78,105l5.79-10.44a29.06,29.06,0,1,0-11.58,0Zm-8-44.43a1.37,1.37,0,0,1,1-.52h25.69a1.37,1.37,0,0,1,1,.52s4.63,6.75,4.64,6.82a5.29,5.29,0,0,1-3.06,7.59A5.19,5.19,0,0,1,185,62.23a5.32,5.32,0,0,1-9.18,0,5.32,5.32,0,0,1-9.18,0A5.35,5.35,0,0,1,162,64.86a5.31,5.31,0,0,1-4.7-7.88C157.32,56.91,162,50.16,162,50.16Zm29.24,31.72a.69.69,0,0,1-.68.68h-2.73a.68.68,0,0,1-.68-.68V70.07a.69.69,0,0,0-.69-.68H180a.69.69,0,0,0-.68.68V81.88a.69.69,0,0,1-.68.68H161.05a.69.69,0,0,1-.68-.68V66.07a6.89,6.89,0,0,0,1.64.21,6.69,6.69,0,0,0,4.59-1.81,6.72,6.72,0,0,0,9.18,0,6.72,6.72,0,0,0,9.18,0,6.69,6.69,0,0,0,4.58,1.81,6.91,6.91,0,0,0,1.65-.21Z"/><rect class="cls-1" x="164.34" y="69.39" width="11.44" height="8.13" rx="0.68"/></svg>