<?xml version="1.0" encoding="utf-8"?>
<!-- Generator: Adobe Illustrator 24.3.0, SVG Export Plug-In . SVG Version: 6.00 Build 0)  -->
<svg version="1.1" id="レイヤー_1" xmlns="http://www.w3.org/2000/svg" xmlns:xlink="http://www.w3.org/1999/xlink" x="0px"
	 y="0px" viewBox="0 0 400 240" style="enable-background:new 0 0 400 240;" xml:space="preserve">
<style type="text/css">
	.st0{fill:#FF7382;}
</style>
<g>
	<g>
		<path class="st0" d="M220.6,175.5c2.6-1.1,5-2.3,7.3-3.7v-11.5c-2.3,1.3-4.7,2.5-7.3,3.5V175.5z"/>
		<path class="st0" d="M209.7,178.9c3-0.6,5.9-1.5,8.7-2.5v-11.8c-2.8,1-5.7,1.8-8.7,2.4V178.9z"/>
		<path class="st0" d="M165,171.8c2.3,1.4,4.7,2.6,7.3,3.7v-11.7c-2.6-1-5-2.2-7.3-3.5V171.8z"/>
		<path class="st0" d="M239.1,162.2c4.6-5.6,7.2-12.3,7.2-19.3v-1.5c-1.7,3.7-4.2,7.2-7.2,10.3V162.2z"/>
		<path class="st0" d="M174.6,176.4c2.8,1,5.7,1.9,8.7,2.5V167c-3-0.6-5.9-1.4-8.7-2.4V176.4z"/>
		<path class="st0" d="M146.7,142.9c0,7.1,2.6,13.7,7.2,19.3v-10.5c-3-3.1-5.5-6.6-7.2-10.3V142.9z"/>
		<path class="st0" d="M185.6,179.3c3.2,0.5,6.4,0.8,9.8,0.9v-12c-3.3-0.1-6.6-0.3-9.8-0.8V179.3z"/>
		<path class="st0" d="M230.2,170.3c2.4-1.7,4.7-3.6,6.6-5.6v-10.8c-2,1.8-4.2,3.5-6.6,5V170.3z"/>
		<path class="st0" d="M156.2,164.8c2,2,4.2,3.9,6.6,5.6V159c-2.4-1.5-4.6-3.2-6.6-5V164.8z"/>
		<path class="st0" d="M197.6,180.2c3.4-0.1,6.6-0.4,9.8-0.9v-11.9c-3.2,0.5-6.4,0.8-9.8,0.8V180.2z"/>
		<path class="st0" d="M244,139.1c-9.7,8.3-23.8,13.5-39.4,13.5c-24,0-44.2-12.3-50.7-29c-0.2-0.6-0.4-1.1-0.6-1.7
			c-0.2-0.6-0.4-1.2-0.5-1.8c-0.7-2.6-1-5.3-1-8v-0.6c-2.9,4.5-4.6,9.5-4.9,14.7c0,0.5-0.1,1-0.1,1.5c0,0,0,0,0,0c0,0.5,0,1,0.1,1.5
			c1.1,19.9,23,35.8,49.7,35.8C218.7,165.2,237.6,154.2,244,139.1z"/>
		<path class="st0" d="M164.2,123.2V134c2,2,4.2,3.9,6.6,5.6v-11.4C168.4,126.7,166.2,125,164.2,123.2z"/>
		<path class="st0" d="M182.6,133.9v11.8c2.8,1,5.7,1.9,8.7,2.5v-11.9C188.3,135.7,185.4,134.9,182.6,133.9z"/>
		<path class="st0" d="M173.1,129.6v11.5c2.3,1.4,4.7,2.6,7.3,3.7v-11.7C177.8,132.1,175.4,130.9,173.1,129.6z"/>
		<path class="st0" d="M193.6,136.7v11.9c3.2,0.5,6.4,0.8,9.8,0.9v-12C200,137.5,196.8,137.2,193.6,136.7z"/>
		<path class="st0" d="M244.8,129.4v-1.5v-1.5v-3.1c-0.4,0.4-0.9,0.8-1.3,1.2c-0.4,0.3-0.8,0.6-1.2,1c-0.4,0.3-0.8,0.6-1.2,0.9
			c-0.9,0.7-1.9,1.3-2.9,2v11.4c2.4-1.7,4.7-3.6,6.6-5.6V129.4z"/>
		<path class="st0" d="M217.7,136.3v11.9c3-0.6,5.9-1.5,8.7-2.5v-11.8C223.6,134.9,220.7,135.7,217.7,136.3z"/>
		<path class="st0" d="M228.7,133.1v11.7c2.6-1.1,5-2.3,7.3-3.7v-11.5C233.7,130.9,231.2,132.1,228.7,133.1z"/>
		<path class="st0" d="M205.6,137.5v12c3.4-0.1,6.6-0.4,9.8-0.9v-11.9C212.3,137.2,209,137.5,205.6,137.5z"/>
		<path class="st0" d="M156.2,121c1.2,3.8,3.2,7.3,5.8,10.5V121c-0.9-1-1.8-2-2.6-3c-0.3-0.4-0.6-0.8-0.9-1.2
			c-0.3-0.4-0.6-0.9-0.9-1.3c-1-1.6-2-3.2-2.7-4.8v1.5c0,1.8,0.2,3.6,0.5,5.4c0.1,0.6,0.2,1.2,0.4,1.8
			C155.8,119.9,156,120.4,156.2,121z"/>
		<path class="st0" d="M247.1,121v0.4v4.8v1.5v3.7c0.2-0.2,0.4-0.5,0.5-0.7c0.1-0.1,0.1-0.1,0.2-0.2c0.5-0.7,1-1.4,1.5-2.1
			c0,0,0,0,0,0c3.2-4.9,5-10.4,5-16.2v-1.5c-1.5,3.2-3.5,6.3-6,9.1C247.9,120.2,247.5,120.6,247.1,121z"/>
		<path class="st0" d="M209.8,93.1c1-0.1,1.8-0.4,2.6-0.7c0,0,0,0,0,0c0.7-0.3,1.2-0.7,1.7-1.2c0.1-0.1,0.1-0.1,0.2-0.2
			c0.3-0.3,0.5-0.7,0.6-1.1c0.1-0.3,0.1-0.7,0.1-1.1c0-1-0.3-1.7-0.9-2.3c-0.6-0.6-1.4-1-2.4-1.3c-1-0.3-2.1-0.5-3.3-0.6
			c-1.2-0.1-2.3-0.1-3.4-0.1h-6v3V89v1.5v2.8h7.8C207.8,93.4,208.8,93.3,209.8,93.1z"/>
		<path class="st0" d="M254.2,95.6c-1.1-19.9-23-35.8-49.7-35.8c-26.8,0-48.6,15.9-49.7,35.8c0,0.5-0.1,1-0.1,1.5c0,0,0,0,0,0
			c0,0.5,0,1,0.1,1.5c0.1,1.3,0.2,2.6,0.5,3.9c0.1,0.6,0.2,1.1,0.4,1.7c0.1,0.6,0.3,1.1,0.5,1.7c0.9,2.7,2.1,5.3,3.7,7.7
			c0.3,0.4,0.6,0.9,0.9,1.3c0.3,0.4,0.6,0.8,0.9,1.2c8.7,11,24.6,18.3,42.8,18.3c13.5,0,25.8-4.1,34.8-10.7c0.4-0.3,0.8-0.6,1.2-0.9
			c0.4-0.3,0.8-0.6,1.2-1c1.1-0.9,2.2-1.9,3.1-2.9c0.4-0.4,0.8-0.9,1.2-1.3c0.4-0.4,0.8-0.9,1.1-1.3c4.2-5.2,6.7-11.3,7.1-17.7
			c0-0.5,0.1-1,0.1-1.5c0,0,0,0,0,0C254.3,96.6,254.3,96.1,254.2,95.6z M199,115h-11.7v-8.8v-1.6v-1.6V91.1v-1.6V88V77.5H207
			c2.7,0,5.3,0.2,7.8,0.5c2.4,0.4,4.6,1,6.4,1.8c1.8,0.9,3.3,2,4.3,3.5c1.1,1.5,1.6,3.3,1.6,5.5c0,2.1-0.5,3.9-1.4,5.3
			c0,0.1-0.1,0.1-0.1,0.2c-0.2,0.4-0.5,0.7-0.8,1c-0.4,0.4-0.8,0.8-1.2,1.1c-0.6,0.5-1.3,1-2.1,1.4c-1.8,0.9-3.8,1.5-6.2,1.9
			c-2.4,0.4-5,0.6-7.8,0.6H199v2.1v1.5v1.5V115z"/>
	</g>
</g>
</svg>
