<?xml version="1.0" encoding="utf-8"?>
<!-- Generator: Adobe Illustrator 24.3.0, SVG Export Plug-In . SVG Version: 6.00 Build 0)  -->
<svg version="1.1" id="レイヤー_1" xmlns="http://www.w3.org/2000/svg" xmlns:xlink="http://www.w3.org/1999/xlink" x="0px"
	 y="0px" viewBox="0 0 460 80" style="enable-background:new 0 0 460 80;" xml:space="preserve">
<style type="text/css">
	.st0{fill:#FF7382;}
</style>
<g>
	<g>
		<g>
			<path class="st0" d="M437.9,71.2c-10.8,0-18.7-7.9-18.7-18.7V30.3h11.4v22.7c0,4,3.2,7.2,7.2,7.2c4,0,7.2-3.2,7.2-7.2V30.3h11.4
				v22.3C456.5,63.4,448.7,71.2,437.9,71.2z"/>
		</g>
		<g>
			<path class="st0" d="M352.8,71.2c-10.8,0-18.7-7.9-18.7-18.7V30.3h11.4v22.7c0,4,3.2,7.2,7.2,7.2c4,0,7.2-3.2,7.2-7.2V30.3h11.4
				v22.3C371.5,63.4,363.6,71.2,352.8,71.2z"/>
		</g>
		<g>
			<path class="st0" d="M232.4,70.3V50.1c0-5-4-9-9-9c-5,0-9,4-9,9v20.1H203V29.9h11.5c0.2,1.6,0.7,3.2,2.6,3.2
				c0.9,0,1.9-0.3,3.3-0.8c1.9-0.6,4.4-1.4,7.3-1.4c11.5,0,16.6,9.6,16.6,19.2v20.1H232.4z"/>
		</g>
		<g>
			<path class="st0" d="M395.4,71.2c-4.8,0-8.4-1.1-10.9-3.3c-2.4-2-4-5.2-4.1-9.5h10.4c0,1.4,0.4,2.6,1.2,3.4
				c0.8,0.8,1.9,1.2,3.4,1.2c1.6,0,4.5-0.6,4.5-3.4c0-1.8-1.9-3.4-5.9-5c-0.3-0.1-0.5-0.2-0.7-0.3l-1.2-0.5
				c-2.9-1.1-5.1-2.2-6.7-3.3c-1.3-0.9-2.4-2.1-3.1-3.6c-0.8-1.5-1.2-3.3-1.2-5.2c0-4,1.3-7.1,3.8-9.4c2.5-2.3,6-3.5,10.4-3.5
				c4.4,0,8,1.1,10.6,3.3c2.4,2,3.8,5,4,8.7h-10c-0.2-1.2-0.6-4.1-4.2-4.1c-3.4,0-4.5,1.9-4.5,3.3c0,1.8,1.9,3.4,5.9,4.8l2.9,1
				c4,1.6,6.4,3.4,8,5.2c1.5,1.8,2.7,4,2.7,6.9c0,4.1-1.3,7.3-4,9.7C403.9,70,400.2,71.2,395.4,71.2z"/>
		</g>
		<g>
			<path class="st0" d="M313,70.3V50.1c0-5-4-9-9-9c-5,0-9,4-9,9v20.1h-11.8V50.1c0-5-4-9-9-9c-5,0-9,4-9,9v20.1h-11.4V29.9h11.5
				c0.2,1.6,0.7,3.2,2.6,3.2c0.9,0,1.9-0.3,3.3-0.8c1.9-0.6,4.4-1.4,7.3-1.4c7.7,0,11.4,4.7,12.1,5.2c1,0.8,2,0.6,3.4-0.5
				c2.9-2.3,7.7-4.9,14.4-4.7c11.5,0.4,16.6,9.6,16.6,19.2v20.1H313z"/>
		</g>
		<g>
			<path class="st0" d="M172.6,71.2c-12.3,0-21.2-8.9-21.2-21.1c0-12.2,8.9-21.1,21.2-21.1c12.3,0,21.2,8.9,21.2,21.1
				c0,1.1-0.1,2.2-0.3,3.4h-30c-0.2,0-0.3,0.1-0.4,0.2c-0.1,0.1-0.1,0.3-0.1,0.5c1.5,4.2,5.1,6.7,9.6,6.7c2.8,0,5.6-0.9,7.4-2.5
				l10.1,4.2C186.1,68.1,179.8,71.2,172.6,71.2z M172.6,39.3c-4.1,0-7.5,2.1-9.2,5.7c-0.1,0.2-0.1,0.4,0,0.5
				c0.1,0.2,0.3,0.2,0.5,0.2h17.4c0.2,0,0.4-0.1,0.5-0.2c0.1-0.2,0.1-0.3,0-0.5C180,41.4,176.7,39.3,172.6,39.3z"/>
		</g>
		<g>
			<path class="st0" d="M123.1,70.3V25c0-0.3-0.2-0.5-0.5-0.5h-15.6V12.2h44.6v12.3h-11.1c-2.8,0-5,2.3-5,5v40.8H123.1z"/>
		</g>
	</g>
	<g>
		<path class="st0" d="M46.1,1c-5.4,0-10.5,2.9-13.3,7.7c0,0,0,0.1-0.1,0.1l-21,36.4c2.2-0.8,4.5-1.3,7-1.3c4,0,7.9,1.2,11.1,3.4
			c0.3-8.7,7.5-15.7,16.2-15.7c0,0,0,0,0,0c0,0,0,0,0,0c4,0,7.9-1.6,10.8-4.5c2.9-2.9,4.5-6.7,4.5-10.8C61.4,7.9,54.6,1,46.1,1z
			 M46.1,21.7c-3,0-5.4-2.4-5.4-5.4c0-3,2.4-5.4,5.4-5.4c3,0,5.4,2.4,5.4,5.4C51.5,19.3,49.1,21.7,46.1,21.7z"/>
		<path class="st0" d="M53.7,63.7c0-0.5,0-1,0.1-1.4c-2.3,1.2-4.9,1.9-7.6,1.9c-5.9,0-11-3.2-13.9-7.9c-0.1-0.1-0.1-0.1-0.2-0.2
			c-2.7-4.8-7.8-7.7-13.3-7.7c-8.4,0-15.3,6.9-15.3,15.3c0,8.4,6.9,15.3,15.3,15.3H61C56.5,75.4,53.7,69.9,53.7,63.7z M18.8,69.1
			c-3,0-5.4-2.4-5.4-5.4c0-3,2.4-5.4,5.4-5.4c3,0,5.4,2.4,5.4,5.4C24.1,66.7,21.7,69.1,18.8,69.1z"/>
		<path class="st0" d="M86.7,56c0,0,0-0.1-0.1-0.1l-21-36.4c-0.6,4.1-2.5,7.8-5.5,10.8c-1.6,1.6-3.4,2.9-5.4,3.8
			c4.6,2.9,7.7,8,7.7,13.8c0,2.9-0.8,5.6-2.1,8c0,0,0,0.1,0,0.1c-1.4,2.3-2.1,5-2.1,7.7C58.1,72.1,65,79,73.5,79
			c8.4,0,15.3-6.9,15.3-15.3C88.8,61,88.1,58.3,86.7,56z M73.5,69.1c-3,0-5.4-2.4-5.4-5.4c0-3,2.4-5.4,5.4-5.4c3,0,5.4,2.4,5.4,5.4
			C78.8,66.7,76.4,69.1,73.5,69.1z"/>
		<path class="st0" d="M46.1,36.1c-6.5,0-11.8,5.3-11.8,11.8c0,6.5,5.3,11.8,11.8,11.8c6.5,0,11.8-5.3,11.8-11.8
			C57.9,41.4,52.6,36.1,46.1,36.1z"/>
	</g>
</g>
</svg>
